<svg width="18" height="15" viewBox="0 0 18 15" fill="none" xmlns="http://www.w3.org/2000/svg">
<path d="M6.104 13.5L3.448 8.94H1.688V13.5H0.232V2.348H3.832C4.67467 2.348 5.384 2.492 5.96 2.78C6.54667 3.068 6.984 3.45733 7.272 3.948C7.56 4.43867 7.704 4.99867 7.704 5.628C7.704 6.396 7.48 7.07333 7.032 7.66C6.59467 8.24667 5.93333 8.636 5.048 8.828L7.848 13.5H6.104ZM1.688 7.772H3.832C4.62133 7.772 5.21333 7.58 5.608 7.196C6.00267 6.80133 6.2 6.27867 6.2 5.628C6.2 4.96667 6.00267 4.45467 5.608 4.092C5.224 3.72933 4.632 3.548 3.832 3.548H1.688V7.772ZM17.1664 10.444C17.1664 10.956 17.0384 11.4467 16.7824 11.916C16.5264 12.3747 16.1477 12.7587 15.6464 13.068C15.1557 13.3773 14.5637 13.5533 13.8704 13.596V14.892H13.0064V13.596C12.0357 13.5107 11.2464 13.2013 10.6384 12.668C10.0304 12.124 9.72104 11.436 9.71038 10.604H11.2624C11.305 11.052 11.4704 11.4413 11.7584 11.772C12.057 12.1027 12.473 12.3107 13.0064 12.396V8.396C12.2917 8.21467 11.7157 8.028 11.2784 7.836C10.841 7.644 10.4677 7.34533 10.1584 6.94C9.84904 6.53467 9.69438 5.99067 9.69438 5.308C9.69438 4.444 9.99304 3.72933 10.5904 3.164C11.1984 2.59867 12.0037 2.284 13.0064 2.22V0.891999H13.8704V2.22C14.777 2.29467 15.5077 2.588 16.0624 3.1C16.617 3.60133 16.937 4.25733 17.0224 5.068H15.4704C15.417 4.69467 15.2517 4.35867 14.9744 4.06C14.697 3.75067 14.329 3.548 13.8704 3.452V7.356C14.5744 7.53733 15.145 7.724 15.5824 7.916C16.0304 8.09733 16.4037 8.39067 16.7024 8.796C17.0117 9.20133 17.1664 9.75067 17.1664 10.444ZM11.1824 5.228C11.1824 5.75067 11.337 6.15067 11.6464 6.428C11.9557 6.70533 12.409 6.93467 13.0064 7.116V3.42C12.4517 3.47333 12.009 3.65467 11.6784 3.964C11.3477 4.26267 11.1824 4.684 11.1824 5.228ZM13.8704 12.412C14.4464 12.348 14.8944 12.14 15.2144 11.788C15.545 11.436 15.7104 11.0147 15.7104 10.524C15.7104 10.0013 15.5504 9.60133 15.2304 9.324C14.9104 9.036 14.457 8.80667 13.8704 8.636V12.412Z" fill="#F24D0D"/>
</svg>
