<svg width="28" height="29" viewBox="0 0 28 29" fill="none" xmlns="http://www.w3.org/2000/svg">
<path fill-rule="evenodd" clip-rule="evenodd" d="M20.4167 9.1034C19.9335 9.1034 19.5417 8.71164 19.5417 8.2284C19.5417 7.74515 19.9335 7.3534 20.4167 7.3534C20.8999 7.3534 21.2917 7.74515 21.2917 8.2284C21.2917 8.71164 20.8999 9.1034 20.4167 9.1034ZM17.7917 8.2284C17.7917 9.67815 18.967 10.8534 20.4167 10.8534C21.8664 10.8534 23.0417 9.67815 23.0417 8.2284C23.0417 6.77865 21.8664 5.6034 20.4167 5.6034C18.967 5.6034 17.7917 6.77865 17.7917 8.2284Z" fill="#0095E6"/>
<path d="M19.7536 2.12846C17.7099 2.04368 15.6504 2.19427 14.5811 2.29253C13.9209 2.3532 13.3049 2.62396 12.8129 3.04676C9.13607 6.20689 5.78652 9.48702 2.58402 13.0637C1.1261 14.692 1.09835 17.1393 2.42223 18.8492C4.59639 21.6572 6.98791 24.0465 9.79593 26.2206C11.5058 27.5445 13.9531 27.5189 15.5814 26.0611C19.1581 22.8586 22.4382 19.5092 25.5983 15.8322C26.0213 15.3402 26.2919 14.7242 26.3526 14.064C26.4508 12.9947 26.6014 10.9352 26.5166 8.89148C26.4743 7.86961 26.3749 6.85365 26.1657 5.94292C25.9566 5.03218 25.6612 4.20798 25.0492 3.59591C24.4371 2.98386 23.6129 2.68855 22.7022 2.47937C21.7914 2.2702 20.7755 2.17086 19.7536 2.12846ZM19.6807 3.87618C20.6345 3.91575 21.5629 4.01215 22.3103 4.1838C23.0576 4.35546 23.6044 4.62573 23.8119 4.83322C24.0194 5.04069 24.2897 5.58746 24.4613 6.33484C24.6329 7.08223 24.7294 8.01065 24.7689 8.9644C24.848 10.8719 24.7037 12.8789 24.6094 13.9045C24.583 14.1919 24.4671 14.4612 24.2699 14.6906C21.1571 18.3124 17.9356 21.6052 14.4147 24.7577C13.4288 25.6404 11.9338 25.6618 10.8692 24.8374C8.17149 22.7488 5.89638 20.4736 3.80765 17.7759C2.98333 16.7113 3.00464 15.2163 3.8874 14.2304C7.03991 10.7095 10.3329 7.48789 13.9545 4.37521C14.1841 4.17785 14.4532 4.0621 14.7406 4.03569C15.7661 3.94146 17.7732 3.79705 19.6807 3.87618Z" fill="#0095E6"/>
<path fill-rule="evenodd" clip-rule="evenodd" d="M16.9528 11.6771C17.2945 12.0188 17.2945 12.5728 16.9528 12.9145L16.6829 13.1844C17.0577 13.9165 16.9964 14.6677 16.9683 15.0109C16.9648 15.0535 16.9617 15.0899 16.9602 15.1192C16.9346 15.6017 16.5225 15.9721 16.04 15.9464C15.5574 15.9207 15.187 15.5087 15.2127 15.0261C15.2148 14.9881 15.2169 14.9508 15.2188 14.9146C15.2485 14.3882 15.2679 14.0433 14.9408 13.7443C14.8222 13.6358 14.629 13.509 14.3098 13.3965C13.9779 13.2795 13.5287 13.4083 13.2474 13.7439C13.1185 13.8977 13.0554 14.0632 13.0501 14.2189C13.0453 14.3652 13.0888 14.5689 13.2895 14.8184C13.435 14.9993 13.5727 15.1505 13.7142 15.3059C13.7203 15.3126 13.7263 15.3193 13.7324 15.3259C13.8722 15.4795 14.0347 15.6578 14.174 15.8508C14.4947 16.2947 14.6804 16.7964 14.6446 17.4909C14.6135 18.0959 14.3112 18.6314 13.931 19.0321C13.5441 19.4395 13.0265 19.7642 12.4452 19.9428C11.6594 20.1844 10.8584 20.0379 10.2014 19.6659L9.9612 19.9061C9.61949 20.2477 9.06548 20.2477 8.72376 19.9061C8.38206 19.5644 8.38206 19.0104 8.72376 18.6687L8.9681 18.4244C8.57484 17.7228 8.57908 17.0931 8.58094 16.8166C8.58115 16.7858 8.58132 16.7594 8.58093 16.7377C8.57192 16.2546 8.9563 15.8556 9.43946 15.8466C9.92263 15.8376 10.3216 16.2219 10.3306 16.7052C10.3316 16.7552 10.3316 16.8001 10.3317 16.8419C10.3318 16.9801 10.3319 17.0839 10.3639 17.2299C10.3999 17.3943 10.4816 17.608 10.6989 17.8507C11.0495 18.2426 11.5528 18.3863 11.9309 18.27C12.2297 18.1782 12.4859 18.0124 12.6617 17.8273C12.844 17.6352 12.8931 17.4757 12.897 17.4011C12.911 17.1292 12.8575 17.0169 12.7554 16.8756C12.6835 16.776 12.5886 16.6691 12.4383 16.5039C12.4303 16.4952 12.4222 16.4863 12.414 16.4772C12.2759 16.3258 12.1061 16.1391 11.9262 15.9156C11.49 15.3736 11.2809 14.7674 11.3012 14.1604C11.3211 13.5627 11.561 13.0314 11.9063 12.6196C12.5733 11.8239 13.7575 11.3463 14.8916 11.746C15.081 11.8128 15.2571 11.8881 15.4205 11.972L15.7154 11.6771C16.0571 11.3353 16.611 11.3353 16.9528 11.6771Z" fill="#0095E6"/>
</svg>
