<svg width="28" height="29" viewBox="0 0 28 29" fill="none" xmlns="http://www.w3.org/2000/svg">
<path fill-rule="evenodd" clip-rule="evenodd" d="M2.62502 13.4625H4.37502L4.37502 18.7202C4.37502 20.3972 4.37687 21.5671 4.49538 22.4498C4.61052 23.3075 4.8212 23.762 5.14433 24.0856C5.46727 24.409 5.9205 24.6197 6.77633 24.735C7.65746 24.8536 8.82533 24.8555 10.5 24.8555H17.5C19.1747 24.8555 20.3425 24.8536 21.2236 24.735C22.0795 24.6197 22.5327 24.409 22.8557 24.0856C23.1788 23.7619 23.3895 23.3075 23.5046 22.4498C23.6231 21.5671 23.625 20.3972 23.625 18.7202V13.4625H25.375V18.7842C25.375 20.3821 25.375 21.6699 25.2391 22.6827C25.0979 23.734 24.796 24.619 24.094 25.3221C23.3918 26.0253 22.5075 26.3279 21.4572 26.4693C20.4456 26.6055 19.1595 26.6055 17.5641 26.6055H10.4359C8.84046 26.6055 7.55435 26.6055 6.5428 26.4693C5.49243 26.3279 4.60814 26.0253 3.90596 25.3221C3.20396 24.619 2.90207 23.734 2.76094 22.6827C2.62497 21.6699 2.62499 20.3821 2.62502 18.7842L2.62502 13.4625Z" fill="#0095E6"/>
<path fill-rule="evenodd" clip-rule="evenodd" d="M7.29168 21.6146C7.29168 21.1314 7.68343 20.7396 8.16668 20.7396L12.8333 20.7396C13.3166 20.7396 13.7083 21.1314 13.7083 21.6146C13.7083 22.0979 13.3166 22.4896 12.8333 22.4896L8.16668 22.4896C7.68343 22.4896 7.29168 22.0979 7.29168 21.6146Z" fill="#0095E6"/>
<path fill-rule="evenodd" clip-rule="evenodd" d="M20.7355 2.68712C21.4198 2.65224 22.6116 2.9119 23.4733 3.74943C23.8567 4.12219 24.045 4.57458 24.1496 4.97374C24.2433 5.331 24.284 5.70718 24.3158 6.00082C24.3184 6.02557 24.321 6.04973 24.3236 6.07325C24.4295 7.04083 24.7448 7.96725 25.536 8.98084C27.1044 10.9901 26.6181 13.0174 25.5468 14.02C24.7966 14.722 22.9632 16.155 20.7439 15.2403C19.8187 14.859 19.1138 14.3538 18.6269 13.6351C18.576 13.5599 18.5281 13.4834 18.4831 13.4055C18.4006 13.5064 18.3149 13.6046 18.2264 13.6998C17.5802 14.3953 16.7302 14.9903 15.769 15.257C14.8693 15.5066 13.435 15.6315 12.0236 15.1484C11.116 14.8378 10.2399 14.2815 9.53967 13.3905C9.408 13.6113 9.25664 13.8243 9.08565 14.0246C8.32544 14.9153 7.17035 15.561 5.6602 15.5267C5.64017 15.5263 5.62017 15.5251 5.60021 15.5233C5.12642 15.4799 4.46549 15.3347 3.82673 15.0407C3.19401 14.7494 2.49269 14.2694 2.07797 13.5031C1.72628 12.8532 1.4031 12.1861 1.47093 11.3694C1.53548 10.5922 1.94224 9.82182 2.56732 8.881C3.15538 7.9959 3.4457 7.35445 3.59242 6.88459C3.73523 6.42724 3.75202 6.1019 3.75202 5.81654C3.75202 5.27544 3.92723 4.48761 4.46091 3.82966C5.02711 3.1316 5.93164 2.66255 7.19501 2.7209L20.7355 2.68712ZM21.4658 4.54511C21.1703 4.44739 20.9253 4.4282 20.8189 4.43518C20.8006 4.43639 20.7822 4.43701 20.7638 4.43706L7.177 4.47095C7.16128 4.47099 7.14556 4.47061 7.12986 4.4698C6.37832 4.43113 6.01707 4.68913 5.82003 4.93206C5.58677 5.21964 5.50202 5.59428 5.50202 5.81654C5.50202 6.2139 5.47478 6.72757 5.26287 7.40621C5.05486 8.07234 4.67974 8.86387 4.02494 9.84943C3.40716 10.7793 3.23919 11.2221 3.21493 11.5142C3.19395 11.7668 3.26788 12.025 3.61705 12.6702C3.78399 12.9787 4.11325 13.246 4.55854 13.451C4.9836 13.6467 5.43233 13.7467 5.73058 13.7777C6.65453 13.7901 7.31102 13.4082 7.75455 12.8885C8.22383 12.3387 8.44744 11.6391 8.44744 11.1039C8.44744 10.6736 8.76039 10.3071 9.18544 10.2397C9.61049 10.1723 10.0214 10.424 10.1545 10.8333C10.674 12.4305 11.6322 13.1648 12.5904 13.4928C13.5964 13.8371 14.6607 13.7484 15.3011 13.5707C15.8832 13.4092 16.4658 13.0238 16.9444 12.5087C17.4249 11.9915 17.7449 11.4035 17.8598 10.9068C17.9559 10.4909 18.3382 10.2051 18.7644 10.2305C19.1905 10.2559 19.5361 10.5851 19.5822 11.0096C19.6658 11.781 19.825 12.2834 20.0757 12.6535C20.3181 13.0113 20.7049 13.3314 21.4107 13.6223C22.5706 14.1004 23.6431 13.4047 24.351 12.7422C24.7378 12.3802 25.1872 11.378 24.1565 10.0577C23.1553 8.77506 22.7234 7.53811 22.584 6.26369L22.5799 6.22566C22.5439 5.89732 22.5162 5.64399 22.4569 5.41764C22.3983 5.19439 22.3269 5.07565 22.2534 5.00425C22.0356 4.79249 21.7539 4.64036 21.4658 4.54511Z" fill="#0095E6"/>
</svg>
